<svg width="55" height="52" fill="none" xmlns="http://www.w3.org/2000/svg"><g clip-path="url(#clip0_1_8)" filter="url(#filter0_d_1_8)"><path d="M29 2c13.255 0 24 10.745 24 24S42.255 50 29 50 5 39.255 5 26 15.745 2 29 2z" fill="#000" fill-opacity=".01" stroke="#fff" stroke-width="2"/><g clip-path="url(#clip1_1_8)"><path d="M29.326 14c-6.579.001-10.076 4.216-10.076 8.812 0 2.131 1.191 4.79 3.098 5.633.544.245.472-.054.94-1.844a.425.425 0 00-.102-.417c-2.726-3.153-.532-9.635 5.751-9.635 9.093 0 7.394 12.582 1.582 12.582-1.498 0-2.614-1.176-2.261-2.631.428-1.733 1.266-3.596 1.266-4.845 0-3.148-4.69-2.681-4.69 1.49 0 1.289.456 2.159.456 2.159s-1.509 6.096-1.789 7.235c-.474 1.928.064 5.049.111 5.318.029.148.195.195.288.073.149-.195 1.973-2.797 2.484-4.678.186-.685.949-3.465.949-3.465.503.908 1.953 1.668 3.498 1.668 4.596 0 7.918-4.04 7.918-9.053C38.733 17.596 34.62 14 29.326 14z" fill="#fff"/></g></g><defs><clipPath id="clip0_1_8"><path fill="#fff" transform="translate(2)" d="M0 0h53v52H0z"/></clipPath><clipPath id="clip1_1_8"><path fill="#fff" transform="translate(17 14)" d="M0 0h24v24H0z"/></clipPath><filter id="filter0_d_1_8" x="-2" y="0" width="61" height="60" filterUnits="userSpaceOnUse" color-interpolation-filters="sRGB"><feFlood flood-opacity="0" result="BackgroundImageFix"/><feColorMatrix in="SourceAlpha" values="0 0 0 0 0 0 0 0 0 0 0 0 0 0 0 0 0 0 127 0" result="hardAlpha"/><feOffset dy="4"/><feGaussianBlur stdDeviation="2"/><feComposite in2="hardAlpha" operator="out"/><feColorMatrix values="0 0 0 0 0 0 0 0 0 0 0 0 0 0 0 0 0 0 0.25 0"/><feBlend in2="BackgroundImageFix" result="effect1_dropShadow_1_8"/><feBlend in="SourceGraphic" in2="effect1_dropShadow_1_8" result="shape"/></filter></defs></svg>